<svg width="1200" height="760" viewBox="0 0 1200 760" fill="none" xmlns="http://www.w3.org/2000/svg">
<rect width="1200" height="760" rx="48" fill="#F4F7FA"/>
<circle cx="1030" cy="130" r="180" fill="#DDE3E8"/>
<circle cx="160" cy="620" r="220" fill="#EEF2F4"/>
<rect x="90" y="84" width="1020" height="96" rx="32" fill="white"/>
<text x="130" y="145" fill="#263238" font-family="Arial, sans-serif" font-size="42" font-weight="700">Britlex</text>
<rect x="750" y="118" width="80" height="16" rx="8" fill="#8F95A5"/>
<rect x="860" y="118" width="80" height="16" rx="8" fill="#8F95A5"/>
<rect x="970" y="108" width="90" height="36" rx="18" fill="#263238"/>
<text x="92" y="330" fill="#263238" font-family="Arial, sans-serif" font-size="76" font-weight="700">Learn Any</text>
<text x="92" y="420" fill="#263238" font-family="Arial, sans-serif" font-size="76" font-weight="700">Foreign Language</text>
<rect x="94" y="488" width="310" height="72" rx="16" fill="#263238"/>
<text x="150" y="535" fill="white" font-family="Arial, sans-serif" font-size="26" font-weight="700">Get started</text>
<rect x="650" y="260" width="360" height="280" rx="36" fill="white" stroke="#DDE3E8" stroke-width="3"/>
<circle cx="830" cy="370" r="74" fill="#8F95A5"/>
<rect x="725" y="480" width="210" height="28" rx="14" fill="#DDE3E8"/>
<rect x="90" y="628" width="300" height="54" rx="20" fill="white"/>
<rect x="450" y="628" width="300" height="54" rx="20" fill="white"/>
<rect x="810" y="628" width="300" height="54" rx="20" fill="white"/>
</svg>