<svg xmlns="http://www.w3.org/2000/svg" width="1200" height="750" viewBox="0 0 1200 750"><defs><linearGradient id="bg" x1="0" y1="0" x2="1" y2="1"><stop stop-color="#f7fffc"/><stop offset=".55" stop-color="#eaf8f4"/><stop offset="1" stop-color="#dff7ff"/></linearGradient><linearGradient id="m" x1="0" y1="0" x2="1" y2="1"><stop stop-color="#5eead4"/><stop offset="1" stop-color="#7dd3fc"/></linearGradient><filter id="sh"><feDropShadow dx="0" dy="28" stdDeviation="24" flood-color="#082f2c" flood-opacity=".16"/></filter></defs><rect width="1200" height="750" fill="url(#bg)"/><circle cx="990" cy="110" r="250" fill="#7dd3fc" opacity=".22"/><circle cx="130" cy="650" r="260" fill="#5eead4" opacity=".16"/><rect x="80" y="75" width="1040" height="600" rx="42" fill="#fff" filter="url(#sh)"/><rect x="120" y="120" width="960" height="94" rx="28" fill="#082f2c"/><rect x="150" y="148" width="62" height="38" rx="19" fill="url(#m)"/><rect x="250" y="150" width="260" height="18" rx="9" fill="#f7fffc"/><rect x="820" y="142" width="210" height="48" rx="24" fill="url(#m)"/><rect x="120" y="250" width="460" height="365" rx="34" fill="#f7fffc" stroke="#d7eee8"/><rect x="620" y="250" width="460" height="365" rx="34" fill="#082f2c"/><text x="155" y="335" fill="#082f2c" font-family="Arial,sans-serif" font-size="60" font-weight="900">BookingFlow AI</text><text x="158" y="382" fill="#64748b" font-family="Arial,sans-serif" font-size="25" font-weight="700">Smart service booking</text><rect x="155" y="430" width="175" height="54" rx="27" fill="url(#m)"/><rect x="350" y="430" width="175" height="54" rx="27" fill="#fff" stroke="#d7eee8"/><rect x="670" y="300" width="360" height="58" rx="22" fill="#123f3a"/><rect x="670" y="385" width="360" height="58" rx="22" fill="#123f3a"/><rect x="670" y="470" width="360" height="58" rx="22" fill="#123f3a"/><circle cx="705" cy="329" r="16" fill="#5eead4"/><circle cx="705" cy="414" r="16" fill="#7dd3fc"/><circle cx="705" cy="499" r="16" fill="#5eead4"/><rect x="742" y="317" width="210" height="16" rx="8" fill="#f7fffc"/><rect x="742" y="402" width="235" height="16" rx="8" fill="#f7fffc"/><rect x="742" y="487" width="190" height="16" rx="8" fill="#f7fffc"/><text x="150" y="570" fill="#0891b2" font-family="Arial,sans-serif" font-size="24" font-weight="900" letter-spacing="6">AI READY BOOKING</text></svg>
