<svg xmlns="http://www.w3.org/2000/svg" width="1200" height="800" viewBox="0 0 1200 800">
<defs>
<linearGradient id="bg" x1="0" y1="0" x2="1" y2="1">
<stop offset="0" stop-color="#020617"/>
<stop offset="0.55" stop-color="#0f172a"/>
<stop offset="1" stop-color="#1e3a8a"/>
</linearGradient>
<linearGradient id="panel" x1="0" y1="0" x2="1" y2="1">
<stop offset="0" stop-color="#111827"/>
<stop offset="1" stop-color="#020617"/>
</linearGradient>
</defs>
<rect width="1200" height="800" fill="url(#bg)"/>
<circle cx="980" cy="170" r="240" fill="#38bdf8" opacity="0.16"/>
<circle cx="220" cy="650" r="260" fill="#2563eb" opacity="0.14"/>
<rect x="90" y="90" width="1020" height="620" rx="44" fill="#020617" opacity="0.78" stroke="#38bdf8" stroke-opacity="0.24"/>
<text x="140" y="210" fill="#38bdf8" font-family="Arial, sans-serif" font-size="28" letter-spacing="6">ERAGON EXCHANGE</text>
<text x="140" y="315" fill="#ffffff" font-family="Arial, sans-serif" font-size="74" font-weight="700">Crypto exchange</text>
<text x="140" y="395" fill="#ffffff" font-family="Arial, sans-serif" font-size="74" font-weight="700">landing UI</text>
<text x="140" y="470" fill="#cbd5e1" font-family="Arial, sans-serif" font-size="28">Next.js • Product landing • Clean responsive interface</text>
<rect x="760" y="190" width="300" height="370" rx="34" fill="url(#panel)" stroke="#38bdf8" stroke-opacity="0.28"/>
<rect x="805" y="250" width="210" height="34" rx="17" fill="#38bdf8" opacity="0.20"/>
<rect x="805" y="320" width="150" height="22" rx="11" fill="#94a3b8" opacity="0.50"/>
<rect x="805" y="370" width="190" height="22" rx="11" fill="#94a3b8" opacity="0.35"/>
<circle cx="850" cy="465" r="52" fill="#38bdf8" opacity="0.20"/>
<circle cx="960" cy="465" r="52" fill="#2563eb" opacity="0.28"/>
<path d="M875 465 H935" stroke="#38bdf8" stroke-width="12" stroke-linecap="round"/>
</svg>