<svg xmlns="http://www.w3.org/2000/svg" width="1200" height="800" viewBox="0 0 1200 800">
<defs>
<linearGradient id="bg" x1="0" y1="0" x2="1" y2="1">
<stop offset="0" stop-color="#fff7ed"/>
<stop offset="0.55" stop-color="#f5efe4"/>
<stop offset="1" stop-color="#d6c3a5"/>
</linearGradient>
<linearGradient id="book1" x1="0" y1="0" x2="1" y2="1">
<stop offset="0" stop-color="#7c2d12"/>
<stop offset="1" stop-color="#b45309"/>
</linearGradient>
<linearGradient id="book2" x1="0" y1="0" x2="1" y2="1">
<stop offset="0" stop-color="#1f2937"/>
<stop offset="1" stop-color="#475569"/>
</linearGradient>
</defs>
<rect width="1200" height="800" fill="url(#bg)"/>
<circle cx="1040" cy="180" r="260" fill="#92400e" opacity="0.08"/>
<circle cx="200" cy="640" r="240" fill="#78350f" opacity="0.08"/>
<rect x="90" y="90" width="1020" height="620" rx="44" fill="#fffaf0" opacity="0.86" stroke="#b45309" stroke-opacity="0.18"/>
<text x="140" y="210" fill="#92400e" font-family="Arial, sans-serif" font-size="28" letter-spacing="6">LIBRARY LANDING</text>
<text x="140" y="315" fill="#292524" font-family="Arial, sans-serif" font-size="74" font-weight="700">Modern city</text>
<text x="140" y="395" fill="#292524" font-family="Arial, sans-serif" font-size="74" font-weight="700">library space</text>
<text x="140" y="470" fill="#57534e" font-family="Arial, sans-serif" font-size="28">Books • Events • Calm workspace • Editorial UI</text>
<rect x="760" y="185" width="90" height="360" rx="18" fill="url(#book1)"/>
<rect x="870" y="235" width="90" height="310" rx="18" fill="url(#book2)"/>
<rect x="980" y="160" width="90" height="385" rx="18" fill="#d97706"/>
<line x1="805" y1="235" x2="805" y2="500" stroke="#fed7aa" stroke-width="6" opacity="0.5"/>
<line x1="915" y1="280" x2="915" y2="510" stroke="#cbd5e1" stroke-width="6" opacity="0.45"/>
<line x1="1025" y1="210" x2="1025" y2="510" stroke="#ffedd5" stroke-width="6" opacity="0.5"/>
</svg>