<svg xmlns="http://www.w3.org/2000/svg" width="1200" height="750" viewBox="0 0 1200 750">
  <defs>
    <radialGradient id="g1" cx="18%" cy="18%" r="70%">
      <stop offset="0%" stop-color="#5a3a1e" stop-opacity=".85"/>
      <stop offset="48%" stop-color="#21160f"/>
      <stop offset="100%" stop-color="#090706"/>
    </radialGradient>
    <linearGradient id="line" x1="0" y1="0" x2="1" y2="1">
      <stop offset="0%" stop-color="#ead7b0"/>
      <stop offset="100%" stop-color="#c89555"/>
    </linearGradient>
    <filter id="blur"><feGaussianBlur stdDeviation="28"/></filter>
  </defs>
  <rect width="1200" height="750" fill="url(#g1)"/>
  <circle cx="980" cy="120" r="230" fill="#d7a15f" opacity=".12" filter="url(#blur)"/>
  <circle cx="130" cy="650" r="260" fill="#ead7b0" opacity=".08" filter="url(#blur)"/>
  <rect x="86" y="86" width="1028" height="578" rx="42" fill="#120d09" opacity=".72" stroke="url(#line)" stroke-opacity=".35"/>
  <rect x="145" y="145" width="425" height="310" rx="28" fill="#1f1711" stroke="#ead7b0" stroke-opacity=".22"/>
  <path d="M175 405 L540 180" stroke="#ead7b0" stroke-opacity=".18" stroke-width="2"/>
  <path d="M175 190 H540 M175 250 H540 M175 310 H540 M175 370 H540 M235 160 V435 M310 160 V435 M385 160 V435 M460 160 V435" stroke="#ead7b0" stroke-opacity=".10"/>
  <rect x="630" y="145" width="420" height="90" rx="28" fill="#2b1d13" stroke="#d7a15f" stroke-opacity=".28"/>
  <rect x="630" y="265" width="420" height="90" rx="28" fill="#2b1d13" stroke="#d7a15f" stroke-opacity=".18"/>
  <rect x="630" y="385" width="420" height="90" rx="28" fill="#2b1d13" stroke="#d7a15f" stroke-opacity=".18"/>
  <text x="150" y="555" fill="#ffffff" font-family="Arial, sans-serif" font-size="72" font-weight="900">RenovaFlow</text>
  <text x="155" y="610" fill="#d7a15f" font-family="Arial, sans-serif" font-size="26" font-weight="800" letter-spacing="8">AI-READY REPAIR WEBSITE</text>
</svg>
