<svg xmlns="http://www.w3.org/2000/svg" width="1200" height="800" viewBox="0 0 1200 800">
<defs>
<linearGradient id="bg" x1="0" y1="0" x2="1" y2="1">
<stop offset="0" stop-color="#fff1f2"/>
<stop offset="0.55" stop-color="#ffe4e6"/>
<stop offset="1" stop-color="#fecdd3"/>
</linearGradient>
<linearGradient id="card" x1="0" y1="0" x2="1" y2="1">
<stop offset="0" stop-color="#ffffff"/>
<stop offset="1" stop-color="#fff7ed"/>
</linearGradient>
</defs>
<rect width="1200" height="800" fill="url(#bg)"/>
<circle cx="1010" cy="170" r="230" fill="#fb7185" opacity="0.16"/>
<circle cx="210" cy="650" r="260" fill="#f97316" opacity="0.10"/>
<rect x="90" y="90" width="1020" height="620" rx="44" fill="url(#card)" opacity="0.88" stroke="#fb7185" stroke-opacity="0.25"/>
<text x="140" y="210" fill="#be123c" font-family="Arial, sans-serif" font-size="28" letter-spacing="6">SPRING GREETING</text>
<text x="140" y="315" fill="#3f1d2b" font-family="Arial, sans-serif" font-size="74" font-weight="700">Warm seasonal</text>
<text x="140" y="395" fill="#3f1d2b" font-family="Arial, sans-serif" font-size="74" font-weight="700">landing page</text>
<text x="140" y="470" fill="#7f1d1d" font-family="Arial, sans-serif" font-size="28">Next.js • Tailwind • Responsive greeting UI</text>
<g transform="translate(790 220)">
<circle cx="110" cy="110" r="86" fill="#fb7185" opacity="0.18"/>
<path d="M110 45 C140 85 185 105 110 180 C35 105 80 85 110 45Z" fill="#e11d48" opacity="0.82"/>
<circle cx="45" cy="230" r="24" fill="#fb7185" opacity="0.65"/>
<circle cx="180" cy="250" r="18" fill="#f97316" opacity="0.45"/>
<rect x="25" y="300" width="260" height="26" rx="13" fill="#be123c" opacity="0.18"/>
<rect x="25" y="348" width="190" height="20" rx="10" fill="#be123c" opacity="0.12"/>
</g>
</svg>