<svg xmlns="http://www.w3.org/2000/svg" width="1200" height="750" viewBox="0 0 1200 750">
<defs>
<linearGradient id="bg" x1="0" y1="0" x2="1" y2="1"><stop stop-color="#f8f6ef"/><stop offset=".55" stop-color="#eef6d8"/><stop offset="1" stop-color="#10140d"/></linearGradient>
<linearGradient id="lime" x1="0" y1="0" x2="1" y2="1"><stop stop-color="#bef264"/><stop offset="1" stop-color="#84cc16"/></linearGradient>
<filter id="sh"><feDropShadow dx="0" dy="28" stdDeviation="24" flood-color="#0b0f0a" flood-opacity=".20"/></filter>
</defs>
<rect width="1200" height="750" fill="url(#bg)"/>
<circle cx="980" cy="120" r="250" fill="#bef264" opacity=".18"/>
<circle cx="130" cy="650" r="260" fill="#0b0f0a" opacity=".10"/>
<rect x="80" y="75" width="1040" height="600" rx="42" fill="#fffdf6" filter="url(#sh)"/>
<rect x="120" y="120" width="960" height="95" rx="28" fill="#0b0f0a"/>
<rect x="150" y="150" width="62" height="36" rx="18" fill="url(#lime)"/>
<rect x="250" y="148" width="260" height="20" rx="10" fill="#f8f6ef"/>
<rect x="820" y="140" width="210" height="48" rx="24" fill="url(#lime)"/>
<rect x="120" y="250" width="465" height="365" rx="34" fill="#f6f8ee" stroke="#e8eadf"/>
<rect x="625" y="250" width="455" height="365" rx="34" fill="#0b0f0a"/>
<text x="155" y="335" fill="#0b0f0a" font-family="Arial,sans-serif" font-size="62" font-weight="900">StorePilot AI</text>
<text x="158" y="382" fill="#667085" font-family="Arial,sans-serif" font-size="25" font-weight="700">Smart e-commerce demo</text>
<rect x="155" y="430" width="175" height="54" rx="27" fill="url(#lime)"/>
<rect x="350" y="430" width="175" height="54" rx="27" fill="#fff" stroke="#dce4cd"/>
<rect x="670" y="300" width="360" height="58" rx="22" fill="#171d12"/>
<rect x="670" y="385" width="360" height="58" rx="22" fill="#171d12"/>
<rect x="670" y="470" width="360" height="58" rx="22" fill="#171d12"/>
<circle cx="705" cy="329" r="16" fill="#bef264"/>
<circle cx="705" cy="414" r="16" fill="#bef264"/>
<circle cx="705" cy="499" r="16" fill="#bef264"/>
<rect x="742" y="317" width="210" height="16" rx="8" fill="#f8f6ef"/>
<rect x="742" y="402" width="235" height="16" rx="8" fill="#f8f6ef"/>
<rect x="742" y="487" width="190" height="16" rx="8" fill="#f8f6ef"/>
<text x="150" y="570" fill="#84cc16" font-family="Arial,sans-serif" font-size="24" font-weight="900" letter-spacing="6">AI READY SHOP</text>
</svg>
